# Blender 4.4.3
# www.blender.org
g pigeon_dash.002_Mesh_34.002
v -383.658905 614.954468 -263.732788
v -386.806122 613.029053 -260.937286
v -385.597290 611.823486 -260.938171
v -388.162598 615.669067 -260.952423
v -384.847931 617.138855 -263.733398
v -388.730255 619.367493 -260.927612
v -385.127441 691.270996 -263.732849
v -388.162720 695.253235 -260.951508
v -384.847931 693.783447 -263.732330
v -388.730408 691.555054 -260.927307
v -151.933014 609.906799 -260.928223
v -35.293976 609.906799 -260.928253
v -382.944824 700.452698 -260.948608
v -385.597595 699.099487 -260.937500
v -269.002594 697.411621 -263.732849
v -379.232117 609.904297 -260.925995
v -378.948700 613.510803 -263.733002
v -381.461609 697.134827 -263.732605
v -379.232361 701.019043 -260.924988
v -269.002625 609.905884 -260.927368
v -382.944397 610.470337 -260.949615
v -386.806549 697.893494 -260.937103
v -140.507248 701.017517 -260.926392
v -140.507248 697.411621 -263.732910
v -152.767532 613.510803 -263.733215
v -269.002625 613.510803 -263.733063
v 126.147774 611.823486 -260.938507
v 127.356575 613.029053 -260.937683
v 128.713104 615.669067 -260.952789
v 129.280655 619.367493 -260.927979
v 125.677971 619.651367 -263.733307
v 125.677971 691.270996 -263.733093
v 128.713181 695.253235 -260.951874
v 124.209511 695.967834 -263.733307
v 129.280899 691.555054 -260.927673
v 123.495300 700.452698 -260.948944
v 39.176926 701.017883 -260.926147
v 119.782600 609.904297 -260.926361
v 122.011993 613.787476 -263.733398
v 119.499069 613.510803 -263.733307
v 119.782898 701.019043 -260.925293
v 39.176918 609.905884 -260.927551
v 123.494904 610.470337 -260.950012
v 127.357094 697.893494 -260.937378
v 126.148071 699.099487 -260.937866
v -46.719681 701.017517 -260.926422
v 119.339378 616.420715 -262.668457
v 39.176926 694.501587 -262.668152
v 39.176918 616.420715 -262.668457
v -152.767532 616.420715 -262.668304
v -136.963364 671.704346 -262.668091
v -269.002625 616.420715 -262.668274
v -34.459366 615.046692 -262.668427
v -152.767532 615.046692 -262.668304
v -269.002625 694.501587 -262.667969
v -140.106125 694.501587 -262.668091
v -122.367752 645.392944 -262.668304
v -34.459366 616.420715 -262.668427
v -64.859238 645.392944 -262.668335
v -381.000946 615.281982 -262.668213
v -378.864349 615.046692 -262.668213
v -382.530701 616.094360 -262.667999
v -381.461487 613.787476 -263.733124
v -383.354736 617.608398 -262.668488
v -385.127472 619.651367 -263.732910
v -381.001038 695.640381 -262.667847
v -378.948853 697.411621 -263.732697
v -382.530762 694.827881 -262.667999
v -383.354736 693.313965 -262.667542
v -383.591522 691.185913 -262.667938
v -383.591492 619.736572 -262.668060
v -383.658997 695.967834 -263.732910
v -378.864532 695.875610 -262.667969
v -269.002625 615.046692 -262.668274
v -269.002625 695.875610 -262.667969
v -380.588898 616.619019 -262.668213
v -378.788940 616.420715 -262.668213
v -381.521393 617.114197 -262.667999
v -382.019043 618.028381 -262.668488
v -380.589081 694.303406 -262.667847
v -381.521393 693.808228 -262.667999
v -382.018951 692.893982 -262.667542
v -382.217560 691.109619 -262.667969
v -382.217560 619.812805 -262.668060
v -378.789124 694.501587 -262.667938
v -140.295547 695.875610 -262.668091
v 121.139572 694.303406 -262.668182
v 119.339569 694.501587 -262.668182
v 122.768082 691.109619 -262.668243
v -50.263561 671.704346 -262.668121
v 121.551376 615.281982 -262.668549
v 119.414894 615.046692 -262.668457
v 123.081062 616.094360 -262.668396
v 123.905228 617.608398 -262.668884
v 124.141960 619.736572 -262.668457
v 121.551620 695.640381 -262.668182
v 119.499367 697.411621 -263.733093
v 119.414970 695.875610 -262.668182
v 125.398483 693.783447 -263.732697
v 123.081314 694.827881 -262.668396
v 123.905220 693.313965 -262.667908
v 124.141975 691.185913 -262.668274
v 122.012123 697.134827 -263.733002
v 125.398483 617.138855 -263.733673
v 39.176918 697.411621 -263.733063
v 39.176926 695.875610 -262.668152
v 39.176918 613.510803 -263.733276
v 39.176918 615.046692 -262.668457
v -46.719685 697.411621 -263.732941
v -46.931461 695.875610 -262.668121
v -34.459362 613.510803 -263.733246
v 121.139381 616.619019 -262.668579
v 122.071907 617.114197 -262.668396
v 122.569489 618.028381 -262.668884
v 122.768074 619.812805 -262.668457
v 122.071899 693.808228 -262.668396
v 122.569481 692.893982 -262.667908
v -47.120880 694.501587 -262.668121
v -293.068970 687.193298 -262.667969
v -293.069000 627.292114 -262.668243
v -371.143097 627.240601 -262.668121
v -269.002625 701.017883 -260.925934
v 124.209511 614.954468 -263.733185
v -371.143097 687.193298 -262.667969
v 39.176926 694.501587 -262.668152
v 39.176926 695.875610 -262.668152
v -46.719685 697.411621 -263.732941
v -46.931461 695.875610 -262.668121
v -47.120880 694.501587 -262.668121
vn -0.0000 -0.2985 0.9544
vn -0.0000 0.0276 0.9996
vn -0.0000 -0.6038 0.7972
vn -0.0000 -0.0276 0.9996
vn -0.0000 -0.6142 0.7891
vn 0.0495 -0.0065 0.9988
vn 0.0955 -0.0275 0.9950
vn 0.5761 -0.1898 0.7950
vn 0.6146 -0.0404 0.7878
vn -0.0000 -0.0000 1.0000
vn -0.0000 0.2974 0.9547
vn -0.0169 -0.3071 0.9515
vn 0.0065 -0.0492 0.9988
vn -0.0168 0.3071 0.9515
vn -0.0000 0.2985 0.9544
vn -0.0960 -0.3117 0.9453
vn 0.0270 0.0939 0.9952
vn 0.0064 0.0492 0.9988
vn -0.0000 -0.0001 1.0000
vn -0.0002 0.0004 1.0000
vn -0.0961 0.3117 0.9453
vn -0.2367 0.2392 0.9417
vn 0.0960 -0.3117 0.9453
vn -0.0269 0.0939 0.9952
vn -0.0907 0.0913 0.9917
vn 0.2367 -0.2390 0.9417
vn 0.0907 0.0912 0.9917
vn -0.2367 -0.2391 0.9417
vn -0.3117 -0.0980 0.9451
vn 0.0955 0.0275 0.9951
vn 0.0002 -0.0000 1.0000
vn -0.3116 0.0980 0.9451
vn 0.3117 -0.0980 0.9451
vn -0.0955 0.0275 0.9951
vn -0.0495 0.0064 0.9988
vn 0.3071 -0.0171 0.9515
vn -0.0002 -0.0000 1.0000
vn 0.0003 0.0005 1.0000
vn -0.3072 0.0169 0.9515
vn 0.0495 0.0064 0.9988
vn -0.3072 -0.0171 0.9515
vn -0.0000 0.2749 0.9615
vn -0.0000 -0.0021 1.0000
vn -0.0002 -0.0001 1.0000
vn 0.0002 -0.0001 1.0000
vn -0.0955 -0.0275 0.9950
vn -0.0907 -0.0911 0.9917
vn 0.2367 0.2392 0.9417
vn 0.3116 0.0980 0.9452
vn 0.0003 0.0004 1.0000
vn -0.0000 0.6142 0.7892
vn 0.0401 0.6145 0.7879
vn -0.0064 0.0492 0.9988
vn 0.0169 -0.3071 0.9515
vn 0.0168 0.3071 0.9515
vn -0.0065 -0.0492 0.9988
vn 0.3563 -0.4907 0.7951
vn 0.0907 -0.0911 0.9917
vn 0.0269 -0.0939 0.9952
vn 0.1878 -0.5770 0.7949
vn 0.0961 0.3117 0.9453
vn 0.3072 0.0169 0.9515
vn -0.0495 -0.0065 0.9988
vn -0.0269 -0.0939 0.9952
vn -0.0401 0.6145 0.7879
vn -0.1878 0.5770 0.7949
vn -0.3564 -0.4907 0.7951
vn -0.1878 -0.5770 0.7948
vn 0.4894 -0.3583 0.7951
vn -0.4893 0.3584 0.7951
vn -0.5761 0.1898 0.7950
vn -0.6146 -0.0404 0.7878
vn -0.5761 -0.1898 0.7950
vn -0.6146 0.0403 0.7878
vn -0.0401 -0.6145 0.7879
vn 0.6146 0.0403 0.7878
vn 0.0401 -0.6145 0.7879
vn -0.3564 0.4906 0.7951
vn -0.4894 -0.3583 0.7951
vn 0.4894 0.3584 0.7951
vn 0.5761 0.1898 0.7950
vn 0.3564 0.4906 0.7951
vn 0.1878 0.5770 0.7949
vn -0.0000 0.2761 0.9611
vn -0.0000 0.2763 0.9611
vn -0.0000 0.5697 0.8218
vt 0.408779 0.990448
vt 0.408779 0.993141
vt 0.486793 0.993075
vt 0.486793 0.990448
vt 0.396576 0.759182
vt 0.436527 0.759182
vt 0.436557 0.765308
vt 0.396558 0.765308
vt 0.221647 0.759182
vt 0.224520 0.759182
vt 0.224520 0.765308
vt 0.221647 0.765308
vt 0.476372 0.915737
vt 0.535346 0.885679
vt 0.478443 0.885679
vt 0.486793 0.988653
vt 0.466746 0.950449
vt 0.428823 0.950449
vt 0.478566 0.883851
vt 0.535346 0.883851
vt 0.478708 0.881390
vt 0.535346 0.881390
vt 0.259740 0.988653
vt 0.259692 0.990448
vt 0.332134 0.990448
vt 0.332134 0.988653
vt 0.259578 0.881290
vt 0.259692 0.883851
vt 0.332134 0.883851
vt 0.332134 0.881124
vt 0.258281 0.990149
vt 0.257869 0.992543
vt 0.259582 0.993042
vt 0.258553 0.988387
vt 0.590468 0.890135
vt 0.589395 0.885945
vt 0.588208 0.885679
vt 0.588208 0.988653
vt 0.257941 0.886577
vt 0.258553 0.885945
vt 0.258281 0.884183
vt 0.257274 0.885247
vt 0.589667 0.990149
vt 0.590062 0.992543
vt 0.591575 0.990881
vt 0.590674 0.989085
vt 0.256369 0.990880
vt 0.257274 0.989085
vt 0.256730 0.987090
vt 0.255530 0.987888
vt 0.257611 0.887807
vt 0.256730 0.887242
vt 0.591218 0.987090
vt 0.592418 0.987888
vt 0.592631 0.984463
vt 0.591373 0.984297
vt 0.590337 0.887807
vt 0.590007 0.886577
vt 0.257480 0.890135
vt 0.256576 0.890068
vt 0.255313 0.984463
vt 0.256576 0.984297
vt 0.255317 0.889869
vt 0.417003 0.883851
vt 0.416834 0.880925
vt 0.590468 0.984164
vt 0.255530 0.886444
vt 0.257611 0.986558
vt 0.257480 0.984164
vt 0.589395 0.988387
vt 0.590337 0.986558
vt 0.332134 0.885679
vt 0.316264 0.895318
vt 0.316264 0.974315
vt 0.590007 0.987722
vt 0.592418 0.886444
vt 0.591575 0.883418
vt 0.590674 0.885247
vt 0.591218 0.887242
vt 0.257941 0.987722
vt 0.259740 0.885679
vt 0.115244 0.765308
vt 0.115209 0.759182
vt 0.170902 0.759182
vt 0.170902 0.765308
vt 0.332134 0.993075
vt 0.535346 0.988653
vt 0.535346 0.992942
vt 0.535346 0.990448
vt 0.408779 0.988653
vt 0.419200 0.915737
vt 0.588346 0.992975
vt 0.588256 0.990448
vt 0.588257 0.883851
vt 0.588346 0.881357
vt 0.417130 0.885679
vt 0.059407 0.765308
vt 0.059407 0.759182
vt 0.264782 0.974383
vt 0.264782 0.895318
vt 0.229502 0.765308
vt 0.228652 0.759182
vt 0.232124 0.759182
vt 0.232260 0.765308
vt 0.589667 0.884183
vt 0.591373 0.890068
vt 0.592631 0.889869
vt 0.256369 0.883419
vt 0.590062 0.881756
vt 0.257869 0.881756
vt 0.526289 0.759182
vt 0.558214 0.759182
vt 0.558214 0.765308
vt 0.526289 0.765308
vt 0.522612 0.765308
vt 0.522449 0.759182
vt 0.472349 0.759182
vt 0.476230 0.759182
vt 0.475274 0.765308
vt 0.472186 0.765308
vt 0.227684 0.765308
vt 0.514663 0.759182
vt 0.518567 0.759182
vt 0.517486 0.765308
vt 0.514420 0.765308
vt 0.484066 0.759182
vt 0.484066 0.765308
vt 0.480377 0.765308
vt 0.480123 0.759182
vt 0.510732 0.765308
vt 0.510732 0.759182
vt 0.468509 0.765308
vt 0.468509 0.759182
vt 0.184793 0.759182
vt 0.184793 0.765308
vt 0.472330 0.163436
vt 0.412343 0.163436
vt 0.412362 0.157310
vt 0.472300 0.157310
vt 0.291212 0.759182
vt 0.291194 0.765308
vt 0.235542 0.765308
vt 0.235542 0.759182
vt 0.519523 0.765308
vt 0.477312 0.765308
vt 0.178760 0.765308
vt 0.177793 0.759182
vt 0.181280 0.759182
vt 0.181504 0.765308
vt 0.173782 0.759182
vt 0.176939 0.765308
vt 0.173782 0.765308
vt 0.593035 0.759182
vt 0.541648 0.759182
vt 0.541648 0.765308
vt 0.593035 0.765308
s 1
f 54/1/1 25/2/2 111/3/2 53/4/1
f 109/5/3 105/6/4 37/7/5 46/8/5
f 7/9/6 9/10/7 8/11/8 10/12/9
f 90/13/10 48/14/10 118/15/10
f 58/16/10 90/13/10 59/17/10
f 59/17/10 57/18/10 58/16/10
f 110/19/10 48/14/10 106/20/11
f 109/21/3 106/20/11 105/22/4
f 77/23/10 61/24/12 74/25/1 52/26/10
f 67/27/13 73/28/14 75/29/15 15/30/4
f 60/31/16 63/32/17 17/33/18 61/24/12
f 76/34/10 60/31/16 61/24/12 77/23/10
f 89/35/19 87/36/10 88/37/10
f 89/35/19 88/37/10 47/38/10
f 81/39/20 80/40/10 66/41/21 68/42/22
f 91/43/23 39/44/24 123/45/25 93/46/26
f 1/47/27 62/48/28 64/49/29 5/50/30
f 82/51/31 81/39/20 68/42/22 69/52/32
f 94/53/33 104/54/34 31/55/35 95/56/36
f 87/36/10 117/57/37 116/58/38
f 87/36/10 89/35/19 117/57/37
f 83/59/19 82/51/31 69/52/32 70/60/39
f 65/61/40 71/62/41 70/60/39 7/63/6
f 15/30/4 75/29/15 86/64/42 24/65/43
f 47/38/10 115/66/19 89/35/19
f 70/60/39 69/52/32 9/67/7 7/63/6
f 64/49/29 79/68/44 84/69/19 71/62/41
f 115/66/19 47/38/10 112/70/10
f 112/70/10 114/71/45 115/66/19
f 55/72/10 119/73/10 120/74/10 52/26/10
f 114/71/45 112/70/10 113/75/20
f 99/76/46 34/77/47 100/78/48 101/79/49
f 93/46/26 123/45/25 104/54/34 94/53/33
f 78/80/50 62/48/28 60/31/16 76/34/10
f 5/50/30 64/49/29 71/62/41 65/61/40
f 66/41/21 80/40/10 85/81/10 73/28/14
f 20/82/51 26/83/2 17/84/18 16/85/52
f 61/24/12 17/33/18 26/86/2 74/25/1
f 47/38/10 88/37/10 48/14/10 49/87/10
f 53/4/1 111/3/2 107/88/2 108/89/1
f 54/1/1 74/25/1 26/86/2 25/2/2
f 52/26/10 74/25/1 54/1/1 50/90/10
f 58/16/10 57/18/10 50/90/10
f 51/91/10 50/90/10 57/18/10
f 107/88/2 40/92/53 92/93/54 108/89/1
f 90/13/10 58/16/10 49/87/10 48/14/10
f 58/16/10 53/4/1 108/89/1 49/87/10
f 98/94/55 97/95/56 105/22/4 106/20/11
f 73/28/14 85/81/10 55/72/10 75/29/15
f 56/96/10 55/72/10 51/91/10
f 20/82/51 11/97/51 25/98/2 26/83/2
f 52/26/10 120/74/10 77/23/10
f 77/23/10 120/74/10 121/99/10
f 55/72/10 85/81/10 119/73/10
f 77/23/10 121/99/10 85/81/10
f 119/73/10 85/81/10 124/100/10
f 85/81/10 121/99/10 124/100/10
f 49/87/10 108/89/1 92/93/54 47/38/10
f 14/101/57 72/102/58 18/103/59 13/104/60
f 88/37/10 98/94/55 106/20/11 48/14/10
f 92/93/54 40/92/53 39/44/24 91/43/23
f 87/36/10 96/105/61 98/94/55 88/37/10
f 62/48/28 1/47/27 63/32/17 60/31/16
f 112/70/10 91/43/23 93/46/26 113/75/20
f 117/57/37 101/79/49 100/78/48 116/58/38
f 62/48/28 78/80/50 79/68/44 64/49/29
f 47/38/10 92/93/54 91/43/23 112/70/10
f 82/51/31 80/40/10 81/39/20
f 114/71/45 94/53/33 95/56/36 115/66/19
f 84/69/19 83/59/19 70/60/39 71/62/41
f 82/51/31 83/59/19 80/40/10
f 83/59/19 85/81/10 80/40/10
f 115/66/19 95/56/36 102/106/62 89/35/19
f 83/59/19 84/69/19 85/81/10
f 85/81/10 84/69/19 77/23/10
f 102/106/62 32/107/63 99/76/46 101/79/49
f 51/91/10 55/72/10 52/26/10 50/90/10
f 76/34/10 77/23/10 84/69/19
f 76/34/10 84/69/19 79/68/44
f 89/35/19 102/106/62 101/79/49 117/57/37
f 113/75/20 93/46/26 94/53/33 114/71/45
f 76/34/10 79/68/44 78/80/50
f 69/52/32 68/42/22 72/108/58 9/67/7
f 116/58/38 100/78/48 96/105/61 87/36/10
f 100/78/48 34/77/47 103/109/64 96/105/61
f 18/110/59 66/41/21 73/28/14 67/27/13
f 40/111/53 107/112/2 42/113/51 38/114/65
f 40/111/53 38/114/65 43/115/66 39/116/24
f 103/117/64 34/118/47 45/119/67 36/120/68
f 22/121/69 72/102/58 14/101/57
f 104/122/34 123/123/25 28/124/70 29/125/71
f 32/126/63 35/127/72 33/128/73 99/129/46
f 30/130/74 35/127/72 32/126/63 31/131/35
f 103/117/64 36/120/68 41/132/75 97/133/56
f 65/134/40 7/9/6 10/12/9 6/135/76
f 23/136/5 122/137/5 15/138/4 24/139/43
f 15/140/4 122/141/5 19/142/77 67/143/13
f 18/103/59 67/143/13 19/142/77 13/104/60
f 39/116/24 43/115/66 27/144/78 123/123/25
f 45/119/67 34/118/47 44/145/79
f 9/10/7 72/102/58 22/121/69 8/11/8
f 31/131/35 104/122/34 29/125/71 30/130/74
f 2/146/80 1/147/27 5/148/30 4/149/81
f 28/124/70 123/123/25 27/144/78
f 5/148/30 65/134/40 6/135/76 4/149/81
f 75/29/15 55/72/10 56/96/10 86/64/42
f 63/150/17 1/147/27 3/151/82 21/152/83
f 17/84/18 63/150/17 21/152/83 16/85/52
f 95/56/36 31/55/35 32/107/63 102/106/62
f 96/105/61 103/109/64 97/95/56 98/94/55
f 72/108/58 68/42/22 66/41/21 18/110/59
f 3/151/82 1/147/27 2/146/80
f 99/129/46 33/128/73 44/145/79 34/118/47
f 111/153/2 25/154/2 11/155/51 12/156/51
f 97/133/56 41/132/75 37/7/5 105/6/4
f 12/156/51 42/113/51 107/112/2 111/153/2
f 54/1/1 53/4/1 58/16/10 50/90/10
f 129/15/10 125/14/10 128/19/84
f 128/19/85 126/20/86 127/21/86
